<svg width="16" height="17" viewBox="0 0 16 17" fill="none" xmlns="http://www.w3.org/2000/svg">
<rect width="16" height="16" rx="4" fill="black"/>
<path d="M12.3164 10.2754C12.3164 10.666 12.2546 11.0078 12.1309 11.3008C12.0072 11.5872 11.8379 11.8314 11.623 12.0332C11.4082 12.235 11.1576 12.401 10.8711 12.5312C10.5911 12.6549 10.2917 12.7526 9.97266 12.8242C9.66016 12.8893 9.33789 12.9349 9.00586 12.9609C8.68034 12.987 8.36458 13 8.05859 13H3.36133V12.7168C3.67383 12.7168 3.92122 12.6973 4.10352 12.6582C4.29232 12.6126 4.43555 12.5378 4.5332 12.4336C4.63086 12.3229 4.69596 12.1732 4.72852 11.9844C4.76107 11.7891 4.77734 11.5417 4.77734 11.2422V4.77734C4.77734 4.46484 4.76432 4.21419 4.73828 4.02539C4.71224 3.83008 4.65039 3.67708 4.55273 3.56641C4.45508 3.45573 4.31185 3.38086 4.12305 3.3418C3.93424 3.30273 3.68034 3.2832 3.36133 3.2832V3.01953H7.6582C7.96419 3.01953 8.27995 3.03255 8.60547 3.05859C8.93099 3.08464 9.25 3.13346 9.5625 3.20508C9.875 3.27018 10.1712 3.36458 10.4512 3.48828C10.7311 3.61198 10.9753 3.77474 11.1836 3.97656C11.3984 4.17188 11.5677 4.41276 11.6914 4.69922C11.8151 4.97917 11.877 5.3112 11.877 5.69531C11.877 5.97526 11.8281 6.23242 11.7305 6.4668C11.6393 6.70117 11.5124 6.91276 11.3496 7.10156C11.1868 7.28385 10.9948 7.44336 10.7734 7.58008C10.5521 7.7168 10.3145 7.82422 10.0605 7.90234C10.3926 7.96094 10.6953 8.05208 10.9688 8.17578C11.2422 8.29297 11.4798 8.44922 11.6816 8.64453C11.8835 8.83333 12.0397 9.06445 12.1504 9.33789C12.2611 9.60482 12.3164 9.91732 12.3164 10.2754ZM10.3145 5.61719C10.3145 5.22656 10.2298 4.89779 10.0605 4.63086C9.89779 4.36393 9.68294 4.14909 9.41602 3.98633C9.1556 3.81706 8.85938 3.69661 8.52734 3.625C8.20182 3.55339 7.87305 3.51758 7.54102 3.51758C7.31315 3.51758 7.08529 3.5306 6.85742 3.55664C6.63607 3.57617 6.41471 3.61198 6.19336 3.66406V7.50195C6.42773 7.55404 6.66211 7.58333 6.89648 7.58984C7.13737 7.59635 7.37174 7.59961 7.59961 7.59961C7.94466 7.59961 8.27995 7.57357 8.60547 7.52148C8.93099 7.46289 9.2207 7.35872 9.47461 7.20898C9.72852 7.05924 9.93034 6.85742 10.0801 6.60352C10.2363 6.3431 10.3145 6.01432 10.3145 5.61719ZM10.6172 10.3828C10.6172 9.95312 10.5228 9.59505 10.334 9.30859C10.1452 9.01562 9.90104 8.78125 9.60156 8.60547C9.30859 8.42969 8.97656 8.30599 8.60547 8.23438C8.23438 8.15625 7.86654 8.11719 7.50195 8.11719C7.29362 8.11719 7.08203 8.12044 6.86719 8.12695C6.65234 8.12695 6.42773 8.14323 6.19336 8.17578V12.2773C6.47982 12.3424 6.76302 12.3945 7.04297 12.4336C7.32292 12.4661 7.60938 12.4824 7.90234 12.4824C8.23438 12.4824 8.5599 12.4466 8.87891 12.375C9.20443 12.2969 9.49414 12.1764 9.74805 12.0137C10.0085 11.8444 10.2168 11.6263 10.373 11.3594C10.5358 11.0924 10.6172 10.7669 10.6172 10.3828Z" fill="white"/>
</svg>
